#N canvas -1 26 1920 984 12;
#X obj 468 660 sel 13 10;
#X obj 468 693 cyclone/zl group 100;
#X obj 468 748 cyclone/fromsymbol;
#X obj 468 719 list tosymbol;
#X msg 420 593 devices;
#X msg 487 593 open 0;
#X msg 403 658 print;
#X floatatom 161 226 5 0 0 0 - - - 0;
#X msg 561 593 close;
#X floatatom 249 227 5 0 0 0 - - - 0;
#X floatatom 101 624 5 50 600 0 Delay - - 0;
#X floatatom 241 797 5 0 0 0 Feedback_amt - - 0;
#X obj 38 53 adc~;
#X obj 468 628 comport 0 9600;
#X floatatom 64 222 5 0 0 0 - - - 0;
#X obj 45 254 *~;
#X obj 128 259 *~;
#X obj 223 251 *~;
#X obj 44 167 lop~ 300;
#X obj 128 201 hip~ 300;
#X obj 128 168 lop~ 2000;
#X obj 224 168 hip~ 2000;
#X obj 116 439 delwrite~ audio-buffer 5000;
#X obj 123 582 dac~;
#X obj 73 660 delread~ audio-buffer 0;
#X obj 76 885 dac~;
#X obj 145 811 *~;
#X obj 149 856 send~ feedback-sig;
#X obj 160 411 receive~ feedback-sig;
#X text 160 359 Delay Line Modulation;
#X text 141 131 3-Band Equaliser;
#X text 566 560 Serial Data read from Arduino;
#X obj 121 378 *~ 1;
#X obj 915 699 unpack f f f f f f f;
#X obj 78 120 *~ 1;
#X obj 774 81 *~ 0.015;
#X obj 668 356 *~ 1;
#X obj 909 382 *~ 1;
#X obj 705 389 *~ 1;
#X obj 870 382 *~ 1;
#X obj 800 329 r \$0-vfb-dry;
#X obj 931 333 r \$0-vfb-wet;
#X obj 689 328 r \$0-vfb-wet;
#X msg 1282 242 0.37;
#X msg 1344 236 0.771;
#X obj 1197 154 loadbang;
#X msg 1118 222 0.5;
#X msg 1211 238 2.882;
#N canvas -11 108 1176 399 vfb-combfilters-left1 0;
#X obj 46 244 +~;
#X obj 61 219 *~ 0.3;
#X obj 61 194 lop~ 1000;
#X obj 287 244 +~;
#X obj 302 219 *~ 0.3;
#X obj 302 194 lop~ 1000;
#X obj 595 237 *~ 0.3;
#X obj 595 212 lop~ 1000;
#X obj 580 260 +~;
#X obj 871 235 *~ 0.3;
#X obj 871 210 lop~ 1000;
#X obj 856 258 +~;
#X obj 61 141 delread~ \$0-vfb-comb1left;
#X obj 302 142 delread~ \$0-vfb-comb2left;
#X obj 595 160 delread~ \$0-vfb-comb3left;
#X obj 871 158 delread~ \$0-vfb-comb4left;
#X obj 46 268 delwrite~ \$0-vfb-comb1left 100;
#X obj 287 268 delwrite~ \$0-vfb-comb2left 100;
#X obj 580 286 delwrite~ \$0-vfb-comb3left 100;
#X obj 856 284 delwrite~ \$0-vfb-comb4left 100;
#X obj 61 97 r \$0-vfb-comb1left;
#X obj 302 97 r \$0-vfb-comb2left;
#X obj 595 114 r \$0-vfb-comb3left;
#X obj 871 113 r \$0-vfb-comb4left;
#X obj 112 170 r \$0-vfb-frequency;
#X obj 353 170 r \$0-vfb-frequency;
#X obj 646 186 r \$0-vfb-frequency;
#X obj 922 184 r \$0-vfb-frequency;
#X obj 46 28 inlet~;
#X obj 338 365 outlet~;
#X obj 279 58 clip 0 0.99;
#X obj 279 29 r \$0-vfb-room;
#X obj 557 24 r \$0-vfb-clear;
#X connect 0 0 16 0;
#X connect 1 0 0 1;
#X connect 2 0 1 0;
#X connect 2 0 29 0;
#X connect 3 0 17 0;
#X connect 4 0 3 1;
#X connect 5 0 4 0;
#X connect 5 0 29 0;
#X connect 6 0 8 1;
#X connect 7 0 6 0;
#X connect 7 0 29 0;
#X connect 8 0 18 0;
#X connect 9 0 11 1;
#X connect 10 0 9 0;
#X connect 10 0 29 0;
#X connect 11 0 19 0;
#X connect 12 0 2 0;
#X connect 13 0 5 0;
#X connect 14 0 7 0;
#X connect 15 0 10 0;
#X connect 20 0 12 0;
#X connect 21 0 13 0;
#X connect 22 0 14 0;
#X connect 23 0 15 0;
#X connect 24 0 2 1;
#X connect 25 0 5 1;
#X connect 26 0 7 1;
#X connect 27 0 10 1;
#X connect 28 0 0 0;
#X connect 28 0 3 0;
#X connect 28 0 8 0;
#X connect 28 0 11 0;
#X connect 30 0 1 1;
#X connect 30 0 4 1;
#X connect 30 0 6 1;
#X connect 30 0 9 1;
#X connect 31 0 30 0;
#X connect 32 0 16 0;
#X connect 32 0 17 0;
#X connect 32 0 18 0;
#X connect 32 0 19 0;
#X restore 667 187 pd vfb-combfilters-left1;
#N canvas 65 617 1053 369 vfb-combfilters-left2 0;
#X obj 46 244 +~;
#X obj 61 219 *~ 0.3;
#X obj 61 194 lop~ 1000;
#X obj 267 244 +~;
#X obj 282 219 *~ 0.3;
#X obj 282 194 lop~ 1000;
#X obj 514 218 *~ 0.3;
#X obj 514 193 lop~ 1000;
#X obj 499 241 +~;
#X obj 779 217 *~ 0.3;
#X obj 779 192 lop~ 1000;
#X obj 764 240 +~;
#X obj 112 170 r \$0-vfb-frequency;
#X obj 333 170 r \$0-vfb-frequency;
#X obj 565 167 r \$0-vfb-frequency;
#X obj 830 166 r \$0-vfb-frequency;
#X obj 46 28 inlet~;
#X obj 338 326 outlet~;
#X obj 61 90 r \$0-vfb-comb5left;
#X obj 61 141 delread~ \$0-vfb-comb5left;
#X obj 46 268 delwrite~ \$0-vfb-comb5left 100;
#X obj 282 90 r \$0-vfb-comb6left;
#X obj 282 142 delread~ \$0-vfb-comb6left;
#X obj 267 268 delwrite~ \$0-vfb-comb6left 100;
#X obj 514 88 r \$0-vfb-comb7left;
#X obj 514 141 delread~ \$0-vfb-comb7left;
#X obj 499 267 delwrite~ \$0-vfb-comb7left 100;
#X obj 779 88 r \$0-vfb-comb8left;
#X obj 779 140 delread~ \$0-vfb-comb8left;
#X obj 764 266 delwrite~ \$0-vfb-comb8left 100;
#X obj 279 58 clip 0 0.99;
#X obj 279 28 r \$0-vfb-room;
#X obj 571 20 r \$0-vfb-clear;
#X connect 0 0 20 0;
#X connect 1 0 0 1;
#X connect 2 0 1 0;
#X connect 2 0 17 0;
#X connect 3 0 23 0;
#X connect 4 0 3 1;
#X connect 5 0 4 0;
#X connect 5 0 17 0;
#X connect 6 0 8 1;
#X connect 7 0 6 0;
#X connect 7 0 17 0;
#X connect 8 0 26 0;
#X connect 9 0 11 1;
#X connect 10 0 9 0;
#X connect 10 0 17 0;
#X connect 11 0 29 0;
#X connect 12 0 2 1;
#X connect 13 0 5 1;
#X connect 14 0 7 1;
#X connect 15 0 10 1;
#X connect 16 0 0 0;
#X connect 16 0 3 0;
#X connect 16 0 8 0;
#X connect 16 0 11 0;
#X connect 18 0 19 0;
#X connect 19 0 2 0;
#X connect 21 0 22 0;
#X connect 22 0 5 0;
#X connect 24 0 25 0;
#X connect 25 0 7 0;
#X connect 27 0 28 0;
#X connect 28 0 10 0;
#X connect 30 0 1 1;
#X connect 30 0 4 1;
#X connect 30 0 6 1;
#X connect 30 0 9 1;
#X connect 31 0 30 0;
#X connect 32 0 20 0;
#X connect 32 0 23 0;
#X connect 32 0 26 0;
#X connect 32 0 29 0;
#X restore 688 221 pd vfb-combfilters-left2;
#N canvas 648 340 358 650 vfb-diffusor-left 0;
#X obj 51 107 *~ 0.5;
#X obj 36 132 +~;
#X obj 66 132 -~;
#X obj 36 26 inlet~;
#X obj 81 238 *~ 0.5;
#X obj 66 263 +~;
#X obj 96 263 -~;
#X obj 111 368 *~ 0.5;
#X obj 96 393 +~;
#X obj 126 393 -~;
#X obj 141 498 *~ 0.5;
#X obj 126 523 +~;
#X obj 156 523 -~;
#X obj 156 605 outlet~;
#X text 95 28 freeverb's diffusor;
#X obj 156 576 hip~ 5;
#X obj 51 53 r \$0-vfb-allpass1left;
#X obj 51 80 delread~ \$0-vfb-allpass1left;
#X obj 36 158 delwrite~ \$0-vfb-allpass1left 40;
#X obj 81 186 r \$0-vfb-allpass2left;
#X obj 81 211 delread~ \$0-vfb-allpass2left;
#X obj 66 290 delwrite~ \$0-vfb-allpass2left 40;
#X obj 111 317 r \$0-vfb-allpass3left;
#X obj 111 341 delread~ \$0-vfb-allpass3left;
#X obj 96 420 delwrite~ \$0-vfb-allpass3left 40;
#X obj 141 447 r \$0-vfb-allpass4left;
#X obj 141 471 delread~ \$0-vfb-allpass4left;
#X obj 126 550 delwrite~ \$0-vfb-allpass4left 40;
#X obj 227 108 r \$0-vfb-clear;
#X connect 0 0 1 1;
#X connect 1 0 18 0;
#X connect 2 0 5 0;
#X connect 2 0 6 1;
#X connect 3 0 1 0;
#X connect 3 0 2 1;
#X connect 4 0 5 1;
#X connect 5 0 21 0;
#X connect 6 0 8 0;
#X connect 6 0 9 1;
#X connect 7 0 8 1;
#X connect 8 0 24 0;
#X connect 9 0 11 0;
#X connect 9 0 12 1;
#X connect 10 0 11 1;
#X connect 11 0 27 0;
#X connect 12 0 15 0;
#X connect 15 0 13 0;
#X connect 16 0 17 0;
#X connect 17 0 0 0;
#X connect 17 0 2 0;
#X connect 19 0 20 0;
#X connect 20 0 4 0;
#X connect 20 0 6 0;
#X connect 22 0 23 0;
#X connect 23 0 7 0;
#X connect 23 0 9 0;
#X connect 25 0 26 0;
#X connect 26 0 10 0;
#X connect 26 0 12 0;
#X connect 28 0 18 0;
#X connect 28 0 21 0;
#X connect 28 0 24 0;
#X connect 28 0 27 0;
#X restore 667 255 pd vfb-diffusor-left;
#N canvas 440 557 1281 464 vfb-combfilters-right1 0;
#X obj 46 244 +~;
#X obj 61 219 *~ 0.3;
#X obj 61 194 lop~ 1000;
#X obj 286 244 +~;
#X obj 301 219 *~ 0.3;
#X obj 301 194 lop~ 1000;
#X obj 538 218 *~ 0.3;
#X obj 538 193 lop~ 1000;
#X obj 523 241 +~;
#X obj 817 218 *~ 0.3;
#X obj 817 193 lop~ 1000;
#X obj 802 241 +~;
#X obj 112 170 r \$0-vfb-frequency;
#X obj 352 170 r \$0-vfb-frequency;
#X obj 589 167 r \$0-vfb-frequency;
#X obj 868 167 r \$0-vfb-frequency;
#X obj 46 28 inlet~;
#X obj 338 326 outlet~;
#X obj 61 141 delread~ \$0-vfb-comb1right;
#X obj 301 142 delread~ \$0-vfb-comb2right;
#X obj 538 141 delread~ \$0-vfb-comb3right;
#X obj 817 141 delread~ \$0-vfb-comb4right;
#X obj 61 97 r \$0-vfb-comb1right;
#X obj 301 97 r \$0-vfb-comb2right;
#X obj 538 95 r \$0-vfb-comb3right;
#X obj 817 97 r \$0-vfb-comb4right;
#X obj 46 268 delwrite~ \$0-vfb-comb1right 100;
#X obj 286 268 delwrite~ \$0-vfb-comb2right 100;
#X obj 523 267 delwrite~ \$0-vfb-comb3right 100;
#X obj 802 267 delwrite~ \$0-vfb-comb4right 100;
#X obj 279 58 clip 0 0.99;
#X obj 279 28 r \$0-vfb-room;
#X obj 572 26 r \$0-vfb-clear;
#X connect 0 0 26 0;
#X connect 1 0 0 1;
#X connect 2 0 1 0;
#X connect 2 0 17 0;
#X connect 3 0 27 0;
#X connect 4 0 3 1;
#X connect 5 0 4 0;
#X connect 5 0 17 0;
#X connect 6 0 8 1;
#X connect 7 0 6 0;
#X connect 7 0 17 0;
#X connect 8 0 28 0;
#X connect 9 0 11 1;
#X connect 10 0 9 0;
#X connect 10 0 17 0;
#X connect 11 0 29 0;
#X connect 12 0 2 1;
#X connect 13 0 5 1;
#X connect 14 0 7 1;
#X connect 15 0 10 1;
#X connect 16 0 0 0;
#X connect 16 0 3 0;
#X connect 16 0 8 0;
#X connect 16 0 11 0;
#X connect 18 0 2 0;
#X connect 19 0 5 0;
#X connect 20 0 7 0;
#X connect 21 0 10 0;
#X connect 22 0 18 0;
#X connect 23 0 19 0;
#X connect 24 0 20 0;
#X connect 25 0 21 0;
#X connect 30 0 1 1;
#X connect 30 0 4 1;
#X connect 30 0 6 1;
#X connect 30 0 9 1;
#X connect 31 0 30 0;
#X connect 32 0 26 0;
#X connect 32 0 27 0;
#X connect 32 0 28 0;
#X connect 32 0 29 0;
#X restore 875 190 pd vfb-combfilters-right1;
#N canvas 239 418 1138 375 vfb-combfilters-right2 0;
#X obj 46 244 +~;
#X obj 61 219 *~ 0.3;
#X obj 61 194 lop~ 1000;
#X obj 273 252 +~;
#X obj 288 227 *~ 0.3;
#X obj 288 202 lop~ 1000;
#X obj 541 227 *~ 0.3;
#X obj 541 202 lop~ 1000;
#X obj 526 250 +~;
#X obj 854 228 *~ 0.3;
#X obj 854 203 lop~ 1000;
#X obj 839 251 +~;
#X obj 112 170 r \$0-vfb-frequency;
#X obj 339 178 r \$0-vfb-frequency;
#X obj 592 176 r \$0-vfb-frequency;
#X obj 905 177 r \$0-vfb-frequency;
#X obj 46 28 inlet~;
#X obj 338 326 outlet~;
#X obj 279 58 clip 0 0.99;
#X obj 61 90 r \$0-vfb-comb5right;
#X obj 288 98 r \$0-vfb-comb6right;
#X obj 541 97 r \$0-vfb-comb7right;
#X obj 854 99 r \$0-vfb-comb8right;
#X obj 61 141 delread~ \$0-vfb-comb5right;
#X obj 288 150 delread~ \$0-vfb-comb6right;
#X obj 541 150 delread~ \$0-vfb-comb7right;
#X obj 854 151 delread~ \$0-vfb-comb8right;
#X obj 43 278 delwrite~ \$0-vfb-comb5right 100;
#X obj 273 276 delwrite~ \$0-vfb-comb6right 100;
#X obj 526 276 delwrite~ \$0-vfb-comb7right 100;
#X obj 839 277 delwrite~ \$0-vfb-comb8right 100;
#X obj 279 28 r \$0-vfb-room;
#X obj 626 40 r \$0-vfb-clear;
#X connect 0 0 27 0;
#X connect 1 0 0 1;
#X connect 2 0 1 0;
#X connect 2 0 17 0;
#X connect 3 0 28 0;
#X connect 4 0 3 1;
#X connect 5 0 4 0;
#X connect 5 0 17 0;
#X connect 6 0 8 1;
#X connect 7 0 6 0;
#X connect 7 0 17 0;
#X connect 8 0 29 0;
#X connect 9 0 11 1;
#X connect 10 0 9 0;
#X connect 10 0 17 0;
#X connect 11 0 30 0;
#X connect 12 0 2 1;
#X connect 13 0 5 1;
#X connect 14 0 7 1;
#X connect 15 0 10 1;
#X connect 16 0 0 0;
#X connect 16 0 3 0;
#X connect 16 0 8 0;
#X connect 16 0 11 0;
#X connect 18 0 1 1;
#X connect 18 0 4 1;
#X connect 18 0 6 1;
#X connect 18 0 9 1;
#X connect 19 0 23 0;
#X connect 20 0 24 0;
#X connect 21 0 25 0;
#X connect 22 0 26 0;
#X connect 23 0 2 0;
#X connect 24 0 5 0;
#X connect 25 0 7 0;
#X connect 26 0 10 0;
#X connect 31 0 18 0;
#X connect 32 0 27 0;
#X connect 32 0 28 0;
#X connect 32 0 29 0;
#X connect 32 0 30 0;
#X restore 892 224 pd vfb-combfilters-right2;
#N canvas 408 131 399 650 vfb-diffusor-right 0;
#X obj 51 107 *~ 0.5;
#X obj 36 132 +~;
#X obj 66 132 -~;
#X obj 36 26 inlet~;
#X obj 81 238 *~ 0.5;
#X obj 66 263 +~;
#X obj 96 263 -~;
#X obj 111 368 *~ 0.5;
#X obj 96 393 +~;
#X obj 126 393 -~;
#X obj 141 498 *~ 0.5;
#X obj 126 523 +~;
#X obj 156 523 -~;
#X obj 156 605 outlet~;
#X text 95 28 freeverb's diffusor;
#X obj 156 576 hip~ 5;
#X obj 51 53 r \$0-vfb-allpass1right;
#X obj 51 80 delread~ \$0-vfb-allpass1right;
#X obj 36 158 delwrite~ \$0-vfb-allpass1right 40;
#X obj 81 186 r \$0-vfb-allpass2right;
#X obj 81 211 delread~ \$0-vfb-allpass2right;
#X obj 66 290 delwrite~ \$0-vfb-allpass2right 40;
#X obj 111 317 r \$0-vfb-allpass3right;
#X obj 111 341 delread~ \$0-vfb-allpass3right;
#X obj 96 420 delwrite~ \$0-vfb-allpass3right 40;
#X obj 141 447 r \$0-vfb-allpass4right;
#X obj 141 471 delread~ \$0-vfb-allpass4right;
#X obj 126 550 delwrite~ \$0-vfb-allpass4right 40;
#X obj 253 117 r \$0-vfb-clear;
#X connect 0 0 1 1;
#X connect 1 0 18 0;
#X connect 2 0 5 0;
#X connect 2 0 6 1;
#X connect 3 0 1 0;
#X connect 3 0 2 1;
#X connect 4 0 5 1;
#X connect 5 0 21 0;
#X connect 6 0 8 0;
#X connect 6 0 9 1;
#X connect 7 0 8 1;
#X connect 8 0 24 0;
#X connect 9 0 11 0;
#X connect 9 0 12 1;
#X connect 10 0 11 1;
#X connect 11 0 27 0;
#X connect 12 0 15 0;
#X connect 15 0 13 0;
#X connect 16 0 17 0;
#X connect 17 0 0 0;
#X connect 17 0 2 0;
#X connect 19 0 20 0;
#X connect 20 0 4 0;
#X connect 20 0 6 0;
#X connect 22 0 23 0;
#X connect 23 0 7 0;
#X connect 23 0 9 0;
#X connect 25 0 26 0;
#X connect 26 0 10 0;
#X connect 26 0 12 0;
#X connect 28 0 18 0;
#X connect 28 0 21 0;
#X connect 28 0 24 0;
#X connect 28 0 27 0;
#X restore 875 260 pd vfb-diffusor-right;
#N canvas 948 179 942 713 vfb-tuning 0;
#X msg 397 81 1139 \, 1211 \, 1300 \, 1379 \, 1445 \, 1514 \, 1580
\, 1640;
#X text 72 57 combfilter tunings left;
#X text 442 56 combfilter tunings right;
#X text 71 360 allpass tunings left;
#X text 383 355 allpass tunings right;
#X msg 30 82 1116 \, 1188 \, 1277 \, 1356 \, 1422 \, 1491 \, 1557 \,
1617;
#X obj 57 188 +;
#X msg 57 159 1;
#X obj 30 135 t f b;
#X obj 87 188 f;
#X obj 30 56 t b b;
#X msg 87 159 0;
#X obj 57 212 pack f \$0;
#X obj 30 282 s;
#X obj 57 265 symbol;
#X obj 424 188 +;
#X msg 424 159 1;
#X obj 397 135 t f b;
#X obj 454 188 f;
#X msg 454 159 0;
#X obj 424 212 pack f \$0;
#X obj 397 282 s;
#X obj 424 265 symbol;
#X obj 397 56 t b b;
#X obj 30 360 t b b;
#X obj 57 492 +;
#X msg 57 463 1;
#X obj 30 439 t f b;
#X obj 87 492 f;
#X msg 87 463 0;
#X obj 57 516 pack f \$0;
#X obj 30 586 s;
#X obj 57 569 symbol;
#X obj 334 356 t b b;
#X obj 361 488 +;
#X msg 361 459 1;
#X obj 334 435 t f b;
#X obj 391 488 f;
#X msg 391 459 0;
#X obj 361 512 pack f \$0;
#X obj 334 582 s;
#X obj 361 565 symbol;
#X obj 30 22 loadbang;
#X obj 397 27 loadbang;
#X obj 30 334 loadbang;
#X obj 334 331 loadbang;
#X msg 30 386 225 \, 556 \, 441 \, 341;
#X msg 334 380 248 \, 579 \, 464 \, 364;
#X text 27 624 Original Freeverb delay line lengths are converted to
milliseconds \, based on samplerate.;
#X msg 424 238 \$2-vfb-comb\$1right;
#X msg 361 539 \$2-vfb-allpass\$1right;
#X msg 57 542 \$2-vfb-allpass\$1left;
#N canvas 0 50 195 233 vfb-sampstoms 0;
#X obj 27 21 inlet;
#X obj 54 86 samplerate~;
#X obj 27 111 /;
#X obj 27 57 t f b;
#X obj 27 136 * 1000;
#X obj 27 162 outlet;
#X connect 0 0 3 0;
#X connect 1 0 2 1;
#X connect 2 0 4 0;
#X connect 3 0 2 0;
#X connect 3 1 1 0;
#X connect 4 0 5 0;
#X restore 30 411 pd vfb-sampstoms;
#N canvas 0 50 195 233 vfb-sampstoms 0;
#X obj 27 21 inlet;
#X obj 54 86 samplerate~;
#X obj 27 111 /;
#X obj 27 57 t f b;
#X obj 27 136 * 1000;
#X obj 27 162 outlet;
#X connect 0 0 3 0;
#X connect 1 0 2 1;
#X connect 2 0 4 0;
#X connect 3 0 2 0;
#X connect 3 1 1 0;
#X connect 4 0 5 0;
#X restore 334 407 pd vfb-sampstoms;
#X msg 57 238 \$2-vfb-comb\$1left;
#N canvas 243 170 195 233 vfb-sampstoms 0;
#X obj 27 21 inlet;
#X obj 54 86 samplerate~;
#X obj 27 111 /;
#X obj 27 57 t f b;
#X obj 27 136 * 1000;
#X obj 27 162 outlet;
#X connect 0 0 3 0;
#X connect 1 0 2 1;
#X connect 2 0 4 0;
#X connect 3 0 2 0;
#X connect 3 1 1 0;
#X connect 4 0 5 0;
#X restore 30 107 pd vfb-sampstoms;
#N canvas 3 130 195 233 vfb-sampstoms 0;
#X obj 27 21 inlet;
#X obj 54 86 samplerate~;
#X obj 27 111 /;
#X obj 27 57 t f b;
#X obj 27 136 * 1000;
#X obj 27 162 outlet;
#X connect 0 0 3 0;
#X connect 1 0 2 1;
#X connect 2 0 4 0;
#X connect 3 0 2 0;
#X connect 3 1 1 0;
#X connect 4 0 5 0;
#X restore 397 107 pd vfb-sampstoms;
#X connect 0 0 56 0;
#X connect 5 0 55 0;
#X connect 6 0 9 0;
#X connect 6 0 12 0;
#X connect 7 0 6 0;
#X connect 8 0 13 0;
#X connect 8 1 7 0;
#X connect 9 0 6 1;
#X connect 10 0 5 0;
#X connect 10 1 11 0;
#X connect 11 0 9 0;
#X connect 12 0 54 0;
#X connect 14 0 13 1;
#X connect 15 0 18 0;
#X connect 15 0 20 0;
#X connect 16 0 15 0;
#X connect 17 0 21 0;
#X connect 17 1 16 0;
#X connect 18 0 15 1;
#X connect 19 0 18 0;
#X connect 20 0 49 0;
#X connect 22 0 21 1;
#X connect 23 0 0 0;
#X connect 23 1 19 0;
#X connect 24 0 46 0;
#X connect 24 1 29 0;
#X connect 25 0 28 0;
#X connect 25 0 30 0;
#X connect 26 0 25 0;
#X connect 27 0 31 0;
#X connect 27 1 26 0;
#X connect 28 0 25 1;
#X connect 29 0 28 0;
#X connect 30 0 51 0;
#X connect 32 0 31 1;
#X connect 33 0 47 0;
#X connect 33 1 38 0;
#X connect 34 0 37 0;
#X connect 34 0 39 0;
#X connect 35 0 34 0;
#X connect 36 0 40 0;
#X connect 36 1 35 0;
#X connect 37 0 34 1;
#X connect 38 0 37 0;
#X connect 39 0 50 0;
#X connect 41 0 40 1;
#X connect 42 0 10 0;
#X connect 43 0 23 0;
#X connect 44 0 24 0;
#X connect 45 0 33 0;
#X connect 46 0 52 0;
#X connect 47 0 53 0;
#X connect 49 0 22 0;
#X connect 50 0 41 0;
#X connect 51 0 32 0;
#X connect 52 0 27 0;
#X connect 53 0 36 0;
#X connect 54 0 14 0;
#X connect 55 0 8 0;
#X connect 56 0 17 0;
#X restore 1468 301 pd vfb-tuning;
#N canvas 852 574 334 238 vfb-room 0;
#X obj 32 35 inlet;
#X obj 32 63 * 0.28;
#X obj 32 94 + 0.7;
#X obj 32 160 outlet;
#X text 80 65 scaleroom;
#X text 76 94 offsetroom;
#X obj 47 126 s \$0-vfb-room;
#X connect 0 0 1 0;
#X connect 1 0 2 0;
#X connect 2 0 3 0;
#X connect 2 0 6 0;
#X restore 1130 484 pd vfb-room;
#N canvas 738 316 244 376 vfb-frequency 0;
#X obj 60 222 samplerate~;
#X obj 33 8 inlet;
#X obj 33 194 t f b;
#X obj 33 249 *;
#X obj 53 303 s \$0-vfb-frequency;
#X obj 33 327 outlet;
#X obj 33 64 * 0.4;
#X text 76 66 scaledamp;
#X obj 33 90 t b f;
#X obj 33 141 -;
#X msg 33 116 1;
#X obj 33 168 abs;
#X obj 33 275 * 0.5;
#X text 142 283 for [lop~];
#X obj 33 38 clip 0 2.4;
#X connect 0 0 3 1;
#X connect 1 0 14 0;
#X connect 2 0 3 0;
#X connect 2 1 0 0;
#X connect 3 0 12 0;
#X connect 6 0 8 0;
#X connect 8 0 10 0;
#X connect 8 1 9 1;
#X connect 9 0 11 0;
#X connect 10 0 9 0;
#X connect 11 0 2 0;
#X connect 12 0 5 0;
#X connect 12 0 4 0;
#X connect 14 0 6 0;
#X restore 1199 445 pd vfb-frequency;
#N canvas 1631 183 220 198 vfb-scaledry 0;
#X obj 32 74 * 2;
#X obj 32 40 inlet;
#X obj 32 141 outlet;
#X text 58 75 scaledry;
#X obj 41 105 s \$0-vfb-dry;
#X connect 0 0 2 0;
#X connect 0 0 4 0;
#X connect 1 0 0 0;
#X restore 1319 484 pd vfb-scaledry;
#N canvas 1250 559 170 217 vfb-scalewet 0;
#X obj 22 42 inlet;
#X obj 22 143 outlet;
#X obj 22 73 * 3;
#X text 49 74 scalewet;
#X obj 40 112 s \$0-vfb-wet;
#X connect 0 0 2 0;
#X connect 2 0 1 0;
#X connect 2 0 4 0;
#X restore 1432 447 pd vfb-scalewet;
#X msg 1472 365 clear;
#X obj 1103 326 route room damp dry wet clear, f 66;
#X obj 1487 394 s \$0-vfb-clear;
#X obj 804 470 dac~;
#X floatatom 285 578 5 0 0 0 - - - 0;
#X obj 124 525 *~;
#X obj 78 795 *~;
#X floatatom 214 758 5 0 0 0 - - - 0;
#X floatatom 535 249 5 0 0 0 - - - 0;
#X obj 537 278 *~;
#X obj 516 113 vsl 15 128 0 2 0 0 empty empty Reverb\\\ Gain 0 -9 0
10 #00ff04 #000000 #000000 0 1;
#X obj 344 466 vsl 15 128 0 2 0 0 empty empty Filtered\\\ Sig~\\\ Gain
0 -9 0 10 #00ff04 #000000 #000000 0 1;
#X obj 279 639 vsl 15 128 0 2 0 0 empty empty Delay\\\ Gain 0 -9 0
10 #00ff04 #000000 #000000 0 1;
#X floatatom 1434 197 5 0 0 0 - - - 0;
#X msg 1417 240 room \$1;
#X floatatom 1508 193 5 0 0 0 - - - 0;
#X floatatom 1584 198 5 0 0 0 - - - 0;
#X floatatom 1667 201 5 0 0 0 - - - 0;
#X msg 1491 236 damp \$1;
#X msg 1567 241 dry \$1;
#X msg 1650 244 wet \$1;
#X floatatom 1134 369 5 0 0 0 - - - 0;
#X floatatom 1217 375 5 0 0 0 - - - 0;
#X floatatom 1307 362 5 0 0 0 - - - 0;
#X floatatom 1413 362 5 0 0 0 - - - 0;
#X obj 1502 41 vsl 15 128 0 2 0 0 empty empty Damp 0 -9 0 10 #00ff04
#000000 #000000 0 1;
#X obj 1682 45 vsl 15 128 0 2 0 0 empty empty Wet 0 -9 0 10 #00ff04
#000000 #000000 0 1;
#X obj 1595 43 vsl 15 128 0 2 0 0 empty empty Dry 0 -9 0 10 #00ff04
#000000 #000000 0 1;
#X obj 1415 43 vsl 15 128 0 2 0 0 empty empty Room 0 -9 0 10 #00ff04
#000000 #000000 0 1;
#X obj 111 75 osc~;
#X floatatom 90 40 5 0 0 0 - - - 0;
#X obj 902 465 send~ r_op;
#X obj 1458 521 r r_op;
#X connect 0 0 1 0;
#X connect 0 2 1 0;
#X connect 1 0 3 0;
#X connect 3 0 2 0;
#X connect 4 0 13 0;
#X connect 5 0 13 0;
#X connect 7 0 16 1;
#X connect 8 0 13 0;
#X connect 9 0 17 1;
#X connect 10 0 24 0;
#X connect 11 0 26 1;
#X connect 12 0 34 0;
#X connect 13 0 0 0;
#X connect 13 0 6 0;
#X connect 14 0 15 1;
#X connect 15 0 32 0;
#X connect 16 0 32 0;
#X connect 17 0 32 0;
#X connect 18 0 15 0;
#X connect 19 0 16 0;
#X connect 20 0 19 0;
#X connect 21 0 17 0;
#X connect 24 0 26 0;
#X connect 24 0 65 0;
#X connect 26 0 27 0;
#X connect 28 0 22 0;
#X connect 32 0 22 0;
#X connect 32 0 64 0;
#X connect 33 0 14 0;
#X connect 33 1 7 0;
#X connect 33 2 9 0;
#X connect 33 3 10 0;
#X connect 33 4 11 0;
#X connect 33 5 75 0;
#X connect 33 6 76 0;
#X connect 34 0 18 0;
#X connect 34 0 20 0;
#X connect 34 0 21 0;
#X connect 35 0 51 0;
#X connect 35 0 48 0;
#X connect 35 0 52 0;
#X connect 35 0 49 0;
#X connect 36 0 62 0;
#X connect 37 0 62 1;
#X connect 37 0 90 0;
#X connect 38 0 62 0;
#X connect 38 0 90 0;
#X connect 39 0 62 1;
#X connect 39 0 90 0;
#X connect 40 0 39 1;
#X connect 40 0 38 1;
#X connect 41 0 37 1;
#X connect 42 0 36 1;
#X connect 43 0 57 0;
#X connect 44 0 58 0;
#X connect 45 0 46 0;
#X connect 45 0 47 0;
#X connect 45 0 43 0;
#X connect 45 0 44 0;
#X connect 46 0 55 0;
#X connect 47 0 56 0;
#X connect 48 0 50 0;
#X connect 49 0 50 0;
#X connect 50 0 36 0;
#X connect 51 0 53 0;
#X connect 52 0 53 0;
#X connect 53 0 37 0;
#X connect 59 0 61 0;
#X connect 60 0 55 0;
#X connect 60 0 80 0;
#X connect 60 1 56 0;
#X connect 60 1 81 0;
#X connect 60 2 57 0;
#X connect 60 2 82 0;
#X connect 60 3 58 0;
#X connect 60 3 83 0;
#X connect 60 4 59 0;
#X connect 63 0 64 1;
#X connect 64 0 23 0;
#X connect 64 0 23 1;
#X connect 64 0 68 0;
#X connect 65 0 25 0;
#X connect 65 0 25 1;
#X connect 65 0 68 0;
#X connect 66 0 65 1;
#X connect 67 0 68 1;
#X connect 68 0 35 0;
#X connect 68 0 39 0;
#X connect 68 0 38 0;
#X connect 68 0 90 0;
#X connect 69 0 67 0;
#X connect 70 0 63 0;
#X connect 71 0 66 0;
#X connect 72 0 73 0;
#X connect 73 0 60 0;
#X connect 74 0 77 0;
#X connect 75 0 78 0;
#X connect 76 0 79 0;
#X connect 77 0 60 0;
#X connect 78 0 60 0;
#X connect 79 0 60 0;
#X connect 84 0 74 0;
#X connect 85 0 76 0;
#X connect 86 0 75 0;
#X connect 87 0 72 0;
#X connect 89 0 88 0;
